<svg xmlns="http://www.w3.org/2000/svg" viewBox="0 0 24 24" fill="none">
  <circle cx="12" cy="12" r="11" fill="#26A17B"/>
  <path d="M13.5 10.5V8H17V6H7V8H10.5V10.5C7.5 10.7 5.5 11.4 5.5 12.3C5.5 13.2 7.5 13.9 10.5 14.1V19H13.5V14.1C16.5 13.9 18.5 13.2 18.5 12.3C18.5 11.4 16.5 10.7 13.5 10.5ZM13.5 13.5C13.3 13.5 13 13.5 12.5 13.5H12H11.5C11 13.5 10.7 13.5 10.5 13.5C8.1 13.3 6.5 12.8 6.5 12.3C6.5 11.8 8.1 11.3 10.5 11.1V13C10.7 13 11 13 11.5 13H12H12.5C13 13 13.3 13 13.5 13V11.1C15.9 11.3 17.5 11.8 17.5 12.3C17.5 12.8 15.9 13.3 13.5 13.5Z" fill="white"/>
</svg>
